<?xml version="1.0" standalone="no"?>
<!DOCTYPE svg PUBLIC "-//W3C//DTD SVG 20010904//EN"
 "http://www.w3.org/TR/2001/REC-SVG-20010904/DTD/svg10.dtd">
<svg version="1.0" xmlns="http://www.w3.org/2000/svg"
 width="100.000000pt" height="83.000000pt" viewBox="0 0 100.000000 83.000000"
 preserveAspectRatio="xMidYMid meet">
<metadata>
Created by potrace 1.16, written by Peter Selinger 2001-2019
</metadata>
<g transform="translate(0.000000,83.000000) scale(0.100000,-0.100000)"
fill="#000000" stroke="none">
<path d="M437 810 c-32 -26 -34 -52 -7 -115 18 -41 18 -48 5 -61 -8 -9 -15
-22 -15 -31 0 -8 -11 -24 -25 -35 -14 -11 -25 -26 -25 -34 0 -21 18 -17 25 7
4 11 9 18 12 16 7 -7 -27 -71 -43 -80 -7 -4 -34 -37 -60 -72 -25 -36 -49 -65
-52 -65 -3 0 -1 5 6 12 17 17 15 41 -3 34 -8 -3 -15 -2 -15 2 0 4 -11 9 -25
10 -18 1 -29 -6 -40 -28 -10 -19 -11 -30 -5 -30 6 0 8 -4 5 -10 -3 -5 -2 -10
4 -10 6 0 8 -7 4 -16 -4 -11 -1 -15 13 -13 10 2 24 0 31 -4 8 -5 30 10 61 40
58 57 150 133 138 115 -4 -7 -9 -32 -10 -55 -1 -23 -6 -51 -11 -62 -8 -18 -7
-19 11 -5 10 8 -8 -13 -42 -45 -33 -33 -75 -82 -94 -110 l-33 -50 43 40 43 40
-37 -47 -38 -48 67 0 c62 0 72 3 117 36 28 19 47 30 43 24 -4 -6 -4 -22 -1
-36 6 -22 11 -24 60 -24 l53 0 7 95 c5 79 4 102 -10 131 -10 20 -23 38 -31 41
-21 8 -15 56 13 107 25 45 46 67 23 25 -9 -18 -5 -32 21 -83 17 -35 42 -74 56
-89 26 -29 32 -52 10 -44 -15 6 -36 -31 -36 -62 0 -23 16 -36 54 -45 28 -7 29
-7 23 30 -5 32 -4 34 7 19 7 -10 18 -15 25 -11 6 4 18 2 26 -4 13 -10 15 -8
15 16 0 22 3 26 10 14 8 -13 10 -12 10 3 0 24 -28 77 -41 77 -6 0 -7 -6 -3
-12 6 -10 4 -10 -7 0 -18 17 -27 15 -31 -6 -2 -9 -16 20 -32 65 -15 46 -31 85
-36 88 -4 2 -13 41 -20 86 l-13 81 -42 18 c-47 20 -55 33 -44 70 7 23 7 23 8
-7 1 -36 29 -58 61 -48 24 8 27 25 4 25 -13 0 -14 9 -9 53 9 71 -3 83 -85 92
-58 5 -69 4 -93 -15z"/>
<path d="M220 45 c0 -42 2 -45 26 -45 20 0 25 4 20 17 -4 9 -1 20 6 25 10 6
10 8 1 8 -7 0 -13 4 -13 8 0 4 9 8 21 8 18 0 20 -5 16 -33 -5 -30 -3 -33 18
-33 21 0 23 3 18 33 -4 29 -2 33 17 33 19 0 21 -4 17 -33 -5 -30 -3 -33 18
-33 21 0 23 3 18 33 -4 29 -2 33 17 33 19 0 21 -4 17 -33 -5 -28 -3 -33 14
-33 13 0 19 7 19 22 l0 22 16 -22 c24 -34 44 -28 44 13 0 19 5 35 11 35 8 0
10 -12 6 -35 l-6 -35 40 0 c32 0 39 3 39 20 0 11 -4 20 -10 20 -5 0 -10 -4
-10 -10 0 -5 -4 -10 -9 -10 -5 0 -8 11 -8 25 0 14 3 25 8 25 5 0 9 -4 9 -10 0
-5 5 -10 10 -10 6 0 10 9 10 20 0 18 -7 20 -61 20 -58 0 -60 -1 -54 -22 l6
-23 -17 23 c-16 21 -23 22 -145 22 l-129 0 0 -45z"/>
</g>
</svg>
